<mxfile host="app.diagrams.net" modified="2024-01-16T10:37:52.311Z" agent="Mozilla/5.0 (Windows NT 10.0; Win64; x64) AppleWebKit/537.36 (KHTML, like Gecko) Chrome/120.0.0.0 Safari/537.36" version="22.1.18" etag="cFGKCHC5zlirHgyVCamf" type="github">
  <diagram name="Page-1" id="j-W650tsdOF8XtzJ7fWO">
    <mxGraphModel>
      <root>
        <mxCell id="0" />
        <mxCell id="1" parent="0" />
      </root>
    </mxGraphModel>
  </diagram>
</mxfile>
